PathFileType	4	(X/Y/Z)	70_1_52_p1_0-239.trc
DataRate	CameraRate	NumFrames	NumMarkers	Units	OrigDataRate	OrigDataStartFrame	OrigNumFrames
59.0	59.0	6	27	m	59.0	0	240
Frame#	Time	RHip			RKnee			RAnkle			RBigToe			RSmallToe			RHeel			LHip			LKnee			LAnkle			LBigToe			LSmallToe			LHeel			Neck			Head			Nose			RShoulder			RElbow			RWrist			RThumb			RIndex			RPinky			LShoulder			LElbow			LWrist			LThumb			LIndex			LPinky			
		X1	Y1	Z1	X2	Y2	Z2	X3	Y3	Z3	X4	Y4	Z4	X5	Y5	Z5	X6	Y6	Z6	X7	Y7	Z7	X8	Y8	Z8	X9	Y9	Z9	X10	Y10	Z10	X11	Y11	Z11	X12	Y12	Z12	X13	Y13	Z13	X14	Y14	Z14	X15	Y15	Z15	X16	Y16	Z16	X17	Y17	Z17	X18	Y18	Z18	X19	Y19	Z19	X20	Y20	Z20	X21	Y21	Z21	X22	Y22	Z22	X23	Y23	Z23	X24	Y24	Z24	X25	Y25	Z25	X26	Y26	Z26	X27	Y27	Z27	
0	0.0	0.35337842530123387	0.5061564316407221	0.13942978812983062	0.3558714950377989	0.6713244723546568	0.5428638687802261	0.345802704536744	0.7766240539790357	0.9422992398367378	0.3293877100252171	0.6373690710636438	1.005371792320705	0.39206132893394086	0.6236168704103304	0.9893705693759764	0.33821248954161703	0.8586491233493605	0.9830770381363519	0.11203691146151634	0.5976694866346339	0.15348588145779243	0.14024629112665687	0.718779613129749	0.5641500055304628	0.16475088495032844	0.8135600385872933	0.9356773003296605	0.16044243302931357	0.6263806885396118	0.9792786175393464	0.10698832744053109	0.7040385501532473	0.9895658992093918	0.18319739905610094	0.827107209990823	0.9730109876525626	0.21431732312403545	0.3758524296952311	-0.45004311460056845	0.18397536476325846	0.2739123634180507	-0.7063303085733531	0.17329618546861095	0.2647334999465007	-0.5520500063637417	0.3825656829844299	0.34903794867404425	-0.35797703458614266	0.4074540818081725	0.35134490133823937	-0.07579188217681612	0.25594941198980214	0.2998450744418086	0.12682088808344083	0.18810239505777224	0.25229100819548833	0.18687297490862367	0.17974835948038334	0.30870350109647926	0.21284183751405092	0.17946547153536765	0.32166917325429883	0.20839410176652567	0.045584127449528285	0.42860249377466686	-0.3545475309551391	0.015553319242769368	0.4149046949917829	-0.09748546072147393	0.11890949730131647	0.3008996923897726	0.10865101487835546	0.19125939796540442	0.23351277500180825	0.1543903284967877	0.19234899283050105	0.24066147508700195	0.18935829376586674	0.17721042469225415	0.300547906660638	0.21564218641854152
1	0.01694915254237288	0.35878387626760705	0.5183339466780313	0.1407053093548493	0.3555449724069946	0.6726153224657279	0.5399817687476842	0.3479342940905716	0.7593525478321907	0.9366600802511097	0.32132475153787277	0.6385649289019162	1.0066736132900789	0.3873605692366442	0.624537966616411	0.9900903559747496	0.3378956417145973	0.858854674718586	0.9832012062261765	0.11193738939177497	0.5975123561484602	0.15346225015982615	0.1395159747845838	0.7197996231364965	0.568798841370874	0.16446133767373783	0.8138426715845097	0.9318486810724657	0.16047071556969086	0.6259124272809936	0.9791488299686293	0.10703561013503614	0.7033527804366562	0.9892527068011483	0.17698168512327392	0.8271740139923878	0.9771620905134905	0.21856578684802042	0.3763438584336476	-0.4504971070755422	0.184102982660575	0.27365133669173847	-0.7058348878456239	0.1733649273128069	0.26470342842276406	-0.5520738280760942	0.38263864461312735	0.349125892753409	-0.3581089402003922	0.4116000679881173	0.35122419248531483	-0.07610255100584161	0.26029272242247914	0.30021673161212575	0.12693398638228512	0.18663225809263426	0.26611504939639113	0.19402633982720782	0.18079332490330757	0.3104708203201166	0.22117486075696824	0.180591929722024	0.3224167201580558	0.21323556236116803	0.049435244221095374	0.4281668215567177	-0.3586750520940482	0.015441653785428269	0.4151729484933126	-0.10170306466501597	0.11932050496426506	0.3023374404088939	0.11210733852211932	0.19151864908989505	0.2360311847660994	0.16185573668329906	0.1922493998148022	0.24088223315232313	0.18972712066502603	0.1728449357993883	0.3140951243543125	0.2248309325806664
2	0.03389830508474576	0.35440798778352567	0.4893599496311884	0.13421084102044542	0.3552162820658214	0.6732300261849747	0.5364380609815322	0.34790722674143515	0.7592755684279257	0.9365433385340473	0.32154258581517003	0.6384317982004784	1.0063550342598353	0.39181750389055664	0.6232095971140393	0.9894500192460988	0.33803851608614527	0.8582982825623758	0.9828890998852463	0.11394825097463927	0.5812567423810813	0.14382115687294036	0.1422785583325141	0.7190553275303084	0.564261735268643	0.1630699104875326	0.8112708723733754	0.9261073189849307	0.1590741127423188	0.6237123599667169	0.9743839817094397	0.10669792222149695	0.7033368639895793	0.9892844681040952	0.1782018384779773	0.8264501174420341	0.9723996955534353	0.21441213611661852	0.37524144724915687	-0.45351822368560457	0.18429656028587657	0.27399299574138647	-0.7031058904341284	0.17333212446235716	0.26464820721231647	-0.5521037006172184	0.3826546114864691	0.3492078843830219	-0.3581057449992362	0.40788242770566774	0.3516969623177279	-0.07582049843314617	0.2604167095159862	0.29990826535451587	0.13123492268994308	0.18343006549675206	0.295879728656413	0.20843034801181853	0.1785890053390145	0.32552107202171376	0.227826569029701	0.1805337419375718	0.3362516685583623	0.2214579758493727	0.0456374253397754	0.428781017503756	-0.35475586823451105	0.015379821869885282	0.4152953799891297	-0.10179448940137151	0.11332740526151419	0.3271899742251183	0.11105310817625318	0.18766325006634277	0.23679042527758157	0.16596963051791933	0.19273613784874852	0.2446689112850158	0.2009691339153333	0.17141796305145016	0.32929981479086773	0.2302450411637121
3	0.05084745762711865	0.35498127085510756	0.49094433275180777	0.13460586094464916	0.3554472626665876	0.6731059221396308	0.5357600310733301	0.3479675071242224	0.7593277532369412	0.9365648130371085	0.31895539225249725	0.6229597077591067	1.0009235577810727	0.3873885559976651	0.6244356263880937	0.989998022152895	0.3437710522049711	0.8735694065796938	0.9879507690767071	0.11381279309160729	0.5819432159431199	0.13993138093236343	0.1407932426357802	0.7169710376578168	0.5559839334620355	0.16303028883940998	0.8114070484183041	0.9259785145709418	0.1590619349686181	0.6239059982629482	0.974411957178796	0.10657982181122269	0.703566080237642	0.9893403375146297	0.17687749957058022	0.8245962146228487	0.9669618458800937	0.2143796084647837	0.3752426254120738	-0.45358592191156893	0.18426225759994339	0.27390470605659656	-0.7031654505730498	0.1732762793343756	0.2645695000829396	-0.552115170152913	0.3826196553371357	0.3493415480765357	-0.35808814293547425	0.40831251381183237	0.35098858211001144	-0.07588296927836748	0.2615078612764578	0.3018154455216154	0.135436706696889	0.1871136655087319	0.3234027990210944	0.21985361746488358	0.18318165026348762	0.3386823035353366	0.23267139868596884	0.18115612149939417	0.34834179352602285	0.22371968698751324	0.04949417666244802	0.4403446932843818	-0.35569003045345376	0.015379570549905169	0.41538343774040665	-0.10148434167476877	0.10967541756946612	0.3278122673100291	0.11471714508606075	0.18420355759682566	0.2493692903338675	0.17341751215003642	0.18662770434561143	0.2487159538187661	0.20541015458005518	0.17562231100861903	0.34156349301379885	0.23194661717453444
4	0.06779661016949153	0.3556973792260499	0.48951599202566154	0.1341228126183164	0.3549028326775953	0.6699508790776375	0.5335483709386217	0.34791553355980315	0.7592947241399566	0.9364834472078557	0.3216113642912694	0.6386776886866917	1.0064042808522737	0.3919620599837341	0.623484483837193	0.9894540538993898	0.3375701288422179	0.8694751602506089	0.9823966088465196	0.11403606993131037	0.5820469368134421	0.1391040458051146	0.14017802793408068	0.7148001593570124	0.5548423822547005	0.16335307174757063	0.8108760798991054	0.9299417215327427	0.1590169476353094	0.6240001969728782	0.974479432116095	0.1066612095148642	0.7041091483898602	0.9895740968906354	0.17817967037906712	0.8266437995146606	0.9724349741828482	0.2143903225949984	0.37526192616996457	-0.4535270197929122	0.1842833915641337	0.27387768324314027	-0.7031179998612289	0.1732573400888719	0.26457648392831	-0.5520986944240106	0.38286092385392934	0.3496106109511128	-0.3547196769809094	0.40846878591644176	0.35125376478652426	-0.07603749284578108	0.270446934022761	0.3128477337901238	0.13628810708962139	0.19928739741592424	0.2845550117167383	0.21411742037998546	0.18833736090713016	0.33737939104469133	0.23197112444860093	0.1871577450075043	0.36189899063410746	0.2237888097726982	0.04946890981284482	0.4402849176351239	-0.3555505759556673	0.015386446960299428	0.41561164188391375	-0.10152850653733547	0.10426109120386744	0.3548003687902996	0.12104498887196329	0.18238939165978782	0.23574647167033425	0.16219870853320992	0.18222907354440876	0.24587717381996807	0.20481203611302032	0.17211997422223654	0.3316488997340073	0.2339716822396192
5	0.0847457627118644	0.35535375573561023	0.49083853536244354	0.13846116023693553	0.3604555306497492	0.6678328291973249	0.5281278029977043	0.34789074527136693	0.7591251452571843	0.936462521707911	0.32375200421954875	0.6232495524014828	1.0006368819154732	0.3919476603521085	0.6234236141963163	0.9893817225762612	0.33293813217985196	0.8561338815824624	0.9821514293870414	0.1143213169267879	0.5816116185908644	0.14301797107186662	0.14633107085690278	0.7306288044100185	0.5625295723080628	0.16337971685820257	0.8108496081458262	0.9300934211117038	0.15920443388429648	0.624213286549108	0.9745920279796098	0.10693384643906546	0.7040737118975628	0.9895226685075252	0.17786488509668436	0.8256512077780932	0.9724286740933985	0.2142705612893717	0.37583113475822943	-0.4502621281987506	0.18423197661795862	0.2738688212788568	-0.703133994418185	0.17322868402229585	0.26455392047936455	-0.5520292260570185	0.38286056997478424	0.34974740310776486	-0.35471374563671404	0.40860755089363227	0.3514636726519256	-0.07612334965759984	0.2813451586030951	0.3107065385083587	0.13191072816078625	0.2083852124379722	0.334189017047228	0.23333792629850114	0.19920096188406677	0.37844415912760676	0.24494024589524457	0.21189025249668075	0.41539799647494796	0.23382759220472518	0.045468781070890245	0.42873268566032696	-0.35435143743060354	0.016217350248741002	0.41757339508248903	-0.09417850765553765	0.10216670548917234	0.36978627264931785	0.12597786890883111	0.1785342079066098	0.2628939842798758	0.17641728861699865	0.17688084191776965	0.27276109674114046	0.21252229790083738	0.16721250473868723	0.3286693755694578	0.23768365111976736
